
<svg id="ehojjnzyrw6s1" xmlns="http://www.w3.org/2000/svg" xmlns:xlink="http://www.w3.org/1999/xlink" viewBox="0 0 440.630000 400.629330" shape-rendering="geometricPrecision" text-rendering="geometricPrecision"><style><![CDATA[#ehojjnzyrw6s10_to {animation: ehojjnzyrw6s10_to__to 1400ms linear infinite normal forwards}@keyframes ehojjnzyrw6s10_to__to { 0% {transform: translate(317.771000px,243.052000px)} 28.571429% {transform: translate(317.771000px,243.052000px)} 35.714286% {transform: translate(259.135926px,333.052000px)} 42.857143% {transform: translate(174.010713px,356.101730px)} 50% {transform: translate(67.771000px,313.052000px)} 57.142857% {transform: translate(27.771000px,213.893000px)} 64.285714% {transform: translate(67.771000px,116.946000px)} 71.428571% {transform: translate(174.010713px,73.052000px)} 78.571429% {transform: translate(287.771000px,116.946000px)} 85.714286% {transform: translate(330px,213.893000px)} 100% {transform: translate(310px,266.946000px)} }#ehojjnzyrw6s10 {animation: ehojjnzyrw6s10_c_o 1400ms linear infinite normal forwards}@keyframes ehojjnzyrw6s10_c_o { 0% {opacity: 0} 28.571429% {opacity: 1} 42.857143% {opacity: 0.920000} 50% {opacity: 1} 57.142857% {opacity: 0.820000} 64.285714% {opacity: 1} 71.428571% {opacity: 0.720000} 78.571429% {opacity: 1} 100% {opacity: 0} }]]></style><defs><clipPath id="ehojjnzyrw6s2"><path id="ehojjnzyrw6s3" d="M0,300.472000L300.472000,300.472000L300.472000,0L0,0Z" fill="rgb(0,0,0)" stroke="none" stroke-width="1"/></clipPath></defs><g id="ehojjnzyrw6s4" transform="matrix(1.33333000000000 0 0 -1.33333000000000 68.21227415500027 384.83525679000013)"><g id="ehojjnzyrw6s5"><g id="ehojjnzyrw6s6" clip-path="url(#ehojjnzyrw6s2)"><g id="ehojjnzyrw6s7" transform="matrix(1 0 0 1 47.68610000000000 150.46199999999999)"/><g id="ehojjnzyrw6s8" transform="matrix(1 0 0 1 216.77400000000000 150.46199999999999)"/></g></g></g><path id="ehojjnzyrw6s9" d="M2.007013,0C2.007013,-32.514000,26.510795,-54.800000,59.608213,-54.800000C92.705631,-54.800000,117.210491,-32.514000,117.210491,0C117.210491,32.516000,92.705631,54.802000,59.608213,54.802000C26.510795,54.802000,2.007013,32.516000,2.007013,0M144.733426,0C144.733426,-45.111000,109.545576,-78.164000,59.608213,-78.164000C9.670849,-78.164000,-25.517000,-45.111000,-25.517000,0C-25.517000,45.111000,9.670849,78.165000,59.608213,78.165000C109.545576,78.165000,144.733426,45.111000,144.733426,0" transform="matrix(1 0 0 1 145.51700000429145 213.89350000387907)" fill="rgb(46,42,99)" stroke="none" stroke-width="1"/><g id="ehojjnzyrw6s10_to" transform="translate(317.771000,243.052000)"><path id="ehojjnzyrw6s10" d="M0,0C0,-18.840000,12.596000,-33.052000,31.114000,-33.052000C50.493000,-33.052000,62.229000,-18.087000,62.229000,0C62.229000,18.087000,50.493000,33.054000,31.114000,33.054000C12.596000,33.054000,0,18.842000,0,0" transform="translate(0,0)" opacity="0" fill="rgb(46,42,99)" stroke="none" stroke-width="1"/></g></svg>